<?xml version="1.0" encoding="UTF-8"?>
<svg width="1028px" height="992px" viewBox="0 0 1028 992" version="1.1" xmlns="http://www.w3.org/2000/svg" xmlns:xlink="http://www.w3.org/1999/xlink">
    <!-- Generator: Sketch 58 (84663) - https://sketch.com -->
    <title>Shape</title>
    <desc>Created with Sketch.</desc>
    <g id="Page-1" stroke="none" stroke-width="1" fill="none" fill-rule="evenodd">
        <path d="M514,61 L651,347 L964,393 L738,619 L745,664 L791,934 L514,786 L514,61 Z M514,0 C499.333333,0 486,3.66666667 474,11 C462,18.3333333 453,28.3333333 447,41 L331,282 L64,321 C50.6666667,323 38.6666667,328.333333 28,337 C17.3333333,345.666667 9.66666667,356.666667 5,370 C-4.33333333,397.333333 1.66666667,421.666667 23,443 L218,638 L173,909 C170.333333,922.333333 171.833333,935.333333 177.5,948 C183.166667,960.666667 191.666667,971 203,979 C205,980.333333 207.166667,981.666667 209.5,983 C211.833333,984.333333 214.166667,985.5 216.5,986.5 C218.833333,987.5 221.166667,988.333333 223.5,989 L230.5,991 L238,992 L246,992 C258.666667,992 270.333333,989 281,983 L514,858 L746,983 C752,986.333333 758,988.666667 764,990 C770,991.333333 776,992 782,992 C798,992 812.333333,987.666667 825,979 C836.333333,971 844.833333,960.666667 850.5,948 C856.166667,935.333333 857.666667,922.333333 855,909 L810,638 L1005,443 C1026.33333,421.666667 1032.33333,397.333333 1023,370 C1018.33333,356.666667 1010.66667,345.666667 1000,337 C989.333333,328.333333 977.333333,323 964,321 L697,282 L581,41 C579.666667,37.6666667 578,34.6666667 576,32 C574,29.3333333 571.833333,26.6666667 569.5,24 C567.166667,21.3333333 564.666667,18.8333333 562,16.5 C559.333333,14.1666667 556.5,12.1666667 553.5,10.5 C550.5,8.83333333 547.5,7.33333333 544.5,6 C541.5,4.66666667 538.333333,3.5 535,2.5 C531.666667,1.5 528.166667,0.833333333 524.5,0.5 C520.833333,0.166666667 517.333333,0 514,0 Z" id="Shape" fill="#626262" fill-rule="nonzero"></path>
    </g>
</svg>